<svg xmlns="http://www.w3.org/2000/svg" version="1.1" xmlns:xlink="http://www.w3.org/1999/xlink" xmlns:svgjs="http://svgjs.dev/svgjs" width="1000" height="625" viewBox="0 0 1000 625"><g transform="matrix(1,0,0,1,0.23192394558543583,0.2530364372469762)"><svg viewBox="0 0 395 247" data-background-color="#471aa0" preserveAspectRatio="xMidYMid meet" height="625" width="1000" xmlns="http://www.w3.org/2000/svg" xmlns:xlink="http://www.w3.org/1999/xlink"><g id="tight-bounds" transform="matrix(1,0,0,1,-0.09160995850623976,-0.09999999999999432)"><svg viewBox="0 0 395.1832199170125 247.2" height="247.2" width="395.1832199170125"><g><svg viewBox="0 0 395.1832199170125 247.2" height="247.2" width="395.1832199170125"><g><svg viewBox="0 0 395.1832199170125 247.2" height="247.2" width="395.1832199170125"><g id="textblocktransform"><svg viewBox="0 0 395.1832199170125 247.2" height="247.2" width="395.1832199170125" id="textblock"><g><svg viewBox="0 0 395.1832199170125 247.2" height="247.2" width="395.1832199170125"><rect width="395.1832199170125" height="247.2" x="0" y="0" opacity="1" fill="#001f3f" data-fill-palette-color="tertiary"></rect><g transform="matrix(1,0,0,1,23.607599999999998,23.607599999999998)"><svg width="347.9680199170125" viewBox="1.100000023841858 -35.75 62.900001525878906 36.150001525878906" height="199.9848" data-palette-color="#471aa0"><path d="M27.9-31.8L24.85-26.2Q24.5-26.55 23.58-27.15 22.65-27.75 21.33-28.3 20-28.85 18.45-29.28 16.9-29.7 15.3-29.7L15.3-29.7Q12.5-29.7 11.08-28.65 9.65-27.6 9.65-25.7L9.65-25.7Q9.65-24.25 10.55-23.4 11.45-22.55 13.25-21.95 15.05-21.35 17.75-20.65L17.75-20.65Q21.25-19.8 23.83-18.57 26.4-17.35 27.78-15.38 29.15-13.4 29.15-10.15L29.15-10.15Q29.15-7.3 28.1-5.28 27.05-3.25 25.2-2 23.35-0.75 21-0.18 18.65 0.4 16 0.4L16 0.4Q13.35 0.4 10.7-0.15 8.05-0.7 5.6-1.73 3.15-2.75 1.1-4.2L1.1-4.2 4.15-10.15Q4.6-9.7 5.75-8.97 6.9-8.25 8.55-7.53 10.2-6.8 12.15-6.3 14.1-5.8 16.1-5.8L16.1-5.8Q18.9-5.8 20.35-6.75 21.8-7.7 21.8-9.45L21.8-9.45Q21.8-11.05 20.65-11.95 19.5-12.85 17.45-13.53 15.4-14.2 12.6-15L12.6-15Q9.25-15.95 7-17.13 4.75-18.3 3.65-20.1 2.55-21.9 2.55-24.6L2.55-24.6Q2.55-28.25 4.28-30.73 6-33.2 8.95-34.48 11.9-35.75 15.5-35.75L15.5-35.75Q18-35.75 20.23-35.2 22.45-34.65 24.4-33.75 26.35-32.85 27.9-31.8L27.9-31.8ZM32.2-18L32.2-18Q32.2-21.25 33.37-24.38 34.55-27.5 36.8-30.08 39.05-32.65 42.3-34.18 45.55-35.7 49.7-35.7L49.7-35.7Q54.6-35.7 58.17-33.55 61.75-31.4 63.5-27.95L63.5-27.95 58.2-24.3Q57.3-26.3 55.85-27.48 54.4-28.65 52.75-29.13 51.1-29.6 49.5-29.6L49.5-29.6Q46.9-29.6 44.97-28.55 43.05-27.5 41.75-25.8 40.45-24.1 39.82-22 39.2-19.9 39.2-17.8L39.2-17.8Q39.2-15.45 39.95-13.28 40.7-11.1 42.07-9.43 43.45-7.75 45.37-6.78 47.3-5.8 49.6-5.8L49.6-5.8Q51.25-5.8 52.95-6.35 54.65-6.9 56.1-8.1 57.55-9.3 58.35-11.2L58.35-11.2 64-7.95Q62.95-5.3 60.57-3.45 58.2-1.6 55.25-0.65 52.3 0.3 49.4 0.3L49.4 0.3Q45.6 0.3 42.45-1.28 39.3-2.85 37.02-5.48 34.75-8.1 33.47-11.38 32.2-14.65 32.2-18Z" opacity="1" transform="matrix(1,0,0,1,0,0)" fill="#471aa0" class="undefined-text-0" data-fill-palette-color="quaternary" id="text-0"></path></svg></g></svg></g></svg></g></svg></g><g></g></svg></g><defs></defs></svg><rect width="395.1832199170125" height="247.2" fill="none" stroke="none" visibility="hidden"></rect></g></svg></g></svg>