<svg xmlns="http://www.w3.org/2000/svg" version="1.1" xmlns:xlink="http://www.w3.org/1999/xlink" xmlns:svgjs="http://svgjs.dev/svgjs" width="2000" height="1247" viewBox="0 0 2000 1247"><g transform="matrix(1,0,0,1,-1.2121212121212466,0.504858299595071)"><svg viewBox="0 0 396 247" data-background-color="#ffffff" preserveAspectRatio="xMidYMid meet" height="1247" width="2000" xmlns="http://www.w3.org/2000/svg" xmlns:xlink="http://www.w3.org/1999/xlink"><g id="tight-bounds" transform="matrix(1,0,0,1,0.2400000000000091,-0.09999999999999432)"><svg viewBox="0 0 395.52 247.2" height="247.2" width="395.52"><g><svg></svg></g><g><svg viewBox="0 0 395.52 247.2" height="247.2" width="395.52"><g transform="matrix(1,0,0,1,75.54432000000001,52.11923253781512)"><svg viewBox="0 0 244.43135999999996 142.96153492436974" height="142.96153492436974" width="244.43135999999996"><g><svg viewBox="0 0 244.43135999999996 142.96153492436974" height="142.96153492436974" width="244.43135999999996"><g><svg viewBox="0 0 244.43135999999996 142.96153492436974" height="142.96153492436974" width="244.43135999999996"><g><svg viewBox="0 0 244.43135999999996 142.96153492436974" height="142.96153492436974" width="244.43135999999996"><g><svg viewBox="0 0 244.43135999999996 142.96153492436974" height="142.96153492436974" width="244.43135999999996"><g><svg viewBox="0 0 244.43135999999996 142.96153492436974" height="142.96153492436974" width="244.43135999999996"><g transform="matrix(1,0,0,1,0,0)"><svg width="244.43135999999996" viewBox="1.9500000476837158 -34.20000076293945 59.5 34.79999923706055" height="142.96153492436974" data-palette-color="#ef4444"><path d="M22.75-26.05L21.05-31.75Q18.35-32.7 15.5-32.7 12.65-32.7 10.5-31.08 8.35-29.45 8.35-26.25L8.35-26.25Q8.35-23.15 11-21.5L11-21.5Q12.45-20.6 13.38-20.2 14.3-19.8 16.07-19.15 17.85-18.5 18.5-18.23 19.15-17.95 20.43-17.38 21.7-16.8 22.33-16.35 22.95-15.9 23.85-15.1 24.75-14.3 25.2-13.5L25.2-13.5Q26.3-11.45 26.3-9.05L26.3-9.05Q26.3-4.8 22.85-2.1 19.4 0.6 13.9 0.6L13.9 0.6Q9.7 0.6 6.05-0.8L6.05-0.8Q4.25-1.45 3.1-2.6 1.95-3.75 1.95-5.25L1.95-5.25Q1.95-7.7 5.5-8.6L5.5-8.6Q6.05-5.6 7.6-3.75 9.15-1.9 10.83-1.3 12.5-0.7 14.93-0.7 17.35-0.7 19.5-2.27 21.65-3.85 21.65-7.45L21.65-7.45Q21.65-10.2 19.15-11.95L19.15-11.95Q17.15-13.3 14.23-14.5 11.3-15.7 10.3-16.13 9.3-16.55 7.73-17.48 6.15-18.4 5.4-19.3L5.4-19.3Q3.45-21.65 3.45-24.7L3.45-24.7Q3.45-29.4 6.8-31.8 10.15-34.2 16.05-34.2L16.05-34.2Q19.6-34.2 24.3-33.4L24.3-33.4 24.3-26.05 22.75-26.05ZM50.25-33.75L50.25-33.75Q50.25-33.75 60.55-33.3L60.55-33.3 60.85-24.2 59.25-24.2 57.55-30.75Q54.85-31.9 51.15-31.9L51.15-31.9Q45.1-31.9 41.12-27.93 37.15-23.95 37.15-16.35 37.15-8.75 41.02-5.13 44.9-1.5 50.95-1.5L50.95-1.5Q55-1.5 58.2-2.7L58.2-2.7 60.05-8.45 61.45-8.4 61.15-0.9Q55.4 0.3 51.27 0.3 47.15 0.3 44.47-0.15 41.8-0.6 39.25-1.75 36.7-2.9 34.92-4.7 33.15-6.5 32.07-9.38 31-12.25 31-16.4 31-20.55 32.62-24.08 34.25-27.6 37.05-29.65L37.05-29.65Q42.6-33.75 50.25-33.75Z" opacity="1" transform="matrix(1,0,0,1,0,0)" fill="#ef4444" class="undefined-text-0" data-fill-palette-color="primary" id="text-0"></path></svg></g></svg></g></svg></g></svg></g></svg></g></svg></g></svg></g><path d="M253.169 46.119L253.169 2.36 10.689 2.36 10.689 244.84 253.169 244.84 253.169 201.081 240.277 201.081 240.277 231.948 23.581 231.948 23.581 15.252 240.277 15.252 240.277 46.119Z" fill="#ef4444" stroke="transparent" data-fill-palette-color="primary"></path></svg></g><defs></defs></svg><rect width="395.52" height="247.2" fill="none" stroke="none" visibility="hidden"></rect></g></svg></g></svg>