<svg xmlns="http://www.w3.org/2000/svg" version="1.1" xmlns:xlink="http://www.w3.org/1999/xlink" xmlns:svgjs="http://svgjs.dev/svgjs" width="1000" height="750" viewBox="0 0 1000 750"><rect width="1000" height="750" fill="#c51545"></rect><g transform="matrix(0.834,0,0,0.834,82.49454555764976,118.03012461971088)"><svg viewBox="0 0 396 244" data-background-color="#c51545" preserveAspectRatio="xMidYMid meet" height="616" width="1000" xmlns="http://www.w3.org/2000/svg" xmlns:xlink="http://www.w3.org/1999/xlink"><g id="tight-bounds" transform="matrix(1,0,0,1,0.24000004895606253,0.04648539504214)"><svg viewBox="0 0 395.52 243.9070078593419" height="243.9070078593419" width="395.52"><g><svg viewBox="0 0 553.9884113781715 341.6304" height="243.9070078593419" width="395.52"><g transform="matrix(1,0,0,1,0,47.21520000000001)"><svg viewBox="0 0 363.8170272434824 247.2" height="247.2" width="363.8170272434824"><g><svg viewBox="0 0 363.8170272434824 247.2" height="247.2" width="363.8170272434824"><g><svg viewBox="0 0 363.8170272434824 247.2" height="247.2" width="363.8170272434824"><g transform="matrix(1,0,0,1,0,0)"><svg width="363.8170272434824" viewBox="1.9500000476837158 -39.33000183105469 126.49832153320312 82.68000793457031" height="247.2" data-palette-color="#ffffff"><svg></svg><svg></svg><g class="undefined-text-0" data-fill-palette-color="primary" id="text-0"><path xmlns="http://www.w3.org/2000/svg" d="M1.95-1.78l2.1-4.05c0.8 0.467 1.637 0.887 2.51 1.26 0.867 0.38 1.82 0.57 2.86 0.57v0c0.64 0 1.25-0.09 1.83-0.27 0.587-0.18 1.1-0.457 1.54-0.83 0.44-0.373 0.79-0.85 1.05-1.43 0.26-0.58 0.39-1.267 0.39-2.06v0c0-0.54-0.067-1.093-0.2-1.66-0.14-0.573-0.37-1.19-0.69-1.85-0.313-0.66-0.727-1.38-1.24-2.16-0.513-0.78-1.153-1.65-1.92-2.61v0l-3.15-3.98c-0.78-0.993-1.443-1.937-1.99-2.83-0.547-0.893-0.99-1.753-1.33-2.58-0.34-0.82-0.587-1.61-0.74-2.37-0.16-0.753-0.24-1.497-0.24-2.23v0c0-1.22 0.197-2.347 0.59-3.38 0.393-1.033 0.963-1.93 1.71-2.69 0.747-0.753 1.653-1.343 2.72-1.77 1.067-0.42 2.277-0.63 3.63-0.63v0c1.073 0 2.153 0.143 3.24 0.43 1.093 0.28 2.16 0.73 3.2 1.35v0l-1.95 3.79c-0.573-0.347-1.187-0.647-1.84-0.9-0.66-0.247-1.39-0.37-2.19-0.37v0c-1.333 0-2.4 0.377-3.2 1.13-0.793 0.76-1.19 1.83-1.19 3.21v0c0 0.373 0.04 0.76 0.12 1.16 0.08 0.4 0.223 0.837 0.43 1.31 0.2 0.473 0.477 0.993 0.83 1.56 0.347 0.567 0.79 1.21 1.33 1.93v0l4.56 6c0.587 0.787 1.14 1.55 1.66 2.29 0.52 0.74 0.967 1.497 1.34 2.27 0.38 0.773 0.68 1.587 0.9 2.44 0.22 0.853 0.33 1.777 0.33 2.77v0c0 1.467-0.237 2.78-0.71 3.94-0.473 1.167-1.133 2.157-1.98 2.97-0.847 0.813-1.853 1.437-3.02 1.87-1.16 0.427-2.433 0.64-3.82 0.64v0c-1.427 0-2.793-0.21-4.1-0.63-1.3-0.427-2.423-0.963-3.37-1.61zM32.81 0.46v0c-1.4 0-2.69-0.303-3.87-0.91-1.18-0.613-2.203-1.5-3.07-2.66-0.873-1.167-1.553-2.593-2.04-4.28-0.487-1.68-0.73-3.593-0.73-5.74v0c0-2.2 0.25-4.13 0.75-5.79 0.507-1.66 1.187-3.043 2.04-4.15 0.853-1.107 1.84-1.937 2.96-2.49 1.113-0.553 2.27-0.83 3.47-0.83v0c1.4 0 2.63 0.36 3.69 1.08 1.06 0.727 1.9 1.757 2.52 3.09 0.613 1.34 0.993 2.947 1.14 4.82 0.147 1.88 0.017 3.977-0.39 6.29v0l-11.67-0.02c0.133 1.4 0.39 2.577 0.77 3.53 0.387 0.947 0.843 1.713 1.37 2.3 0.527 0.587 1.1 1.007 1.72 1.26 0.62 0.253 1.24 0.38 1.86 0.38v0c0.373 0 0.75-0.04 1.13-0.12 0.38-0.087 0.747-0.193 1.1-0.32 0.347-0.133 0.667-0.28 0.96-0.44 0.293-0.167 0.54-0.32 0.74-0.46v0l1.66 3.71c-0.36 0.227-0.777 0.447-1.25 0.66-0.473 0.207-0.973 0.393-1.5 0.56-0.527 0.16-1.08 0.29-1.66 0.39-0.58 0.093-1.147 0.14-1.7 0.14zM27.64-15.21h7.64c0.08-1.367 0.05-2.493-0.09-3.38-0.133-0.887-0.343-1.597-0.63-2.13-0.287-0.527-0.633-0.89-1.04-1.09-0.407-0.207-0.837-0.31-1.29-0.31v0c-1.173 0-2.18 0.583-3.02 1.75-0.84 1.16-1.363 2.88-1.57 5.16zM53.64 0.46v0c-1.353 0-2.607-0.277-3.76-0.83-1.16-0.553-2.167-1.39-3.02-2.51-0.853-1.127-1.52-2.527-2-4.2-0.48-1.673-0.72-3.633-0.72-5.88v0c0-2.247 0.24-4.21 0.72-5.89 0.48-1.673 1.147-3.073 2-4.2 0.853-1.12 1.86-1.957 3.02-2.51 1.153-0.553 2.407-0.83 3.76-0.83v0c0.993 0 1.95 0.153 2.87 0.46 0.92 0.313 1.737 0.68 2.45 1.1v0l-1.83 3.79c-0.473-0.28-1.013-0.53-1.62-0.75-0.613-0.22-1.237-0.33-1.87-0.33v0c-0.633 0-1.253 0.163-1.86 0.49-0.6 0.327-1.14 0.857-1.62 1.59-0.48 0.727-0.863 1.673-1.15 2.84-0.287 1.167-0.43 2.58-0.43 4.24v0c0 1.66 0.143 3.07 0.43 4.23 0.287 1.167 0.67 2.117 1.15 2.85 0.48 0.727 1.02 1.253 1.62 1.58 0.607 0.327 1.227 0.49 1.86 0.49v0c0.633 0 1.257-0.11 1.87-0.33 0.607-0.22 1.147-0.467 1.62-0.74v0l1.83 3.78c-0.713 0.427-1.53 0.793-2.45 1.1-0.92 0.307-1.877 0.46-2.87 0.46zM72.02 0.46v0c-1.22 0-2.39-0.277-3.51-0.83-1.127-0.553-2.123-1.39-2.99-2.51-0.873-1.127-1.57-2.527-2.09-4.2-0.52-1.673-0.78-3.633-0.78-5.88v0c0-2.247 0.26-4.21 0.78-5.89 0.52-1.673 1.217-3.073 2.09-4.2 0.867-1.12 1.863-1.957 2.99-2.51 1.12-0.553 2.29-0.83 3.51-0.83v0c1.22 0 2.393 0.277 3.52 0.83 1.12 0.553 2.117 1.39 2.99 2.51 0.867 1.127 1.563 2.527 2.09 4.2 0.52 1.68 0.78 3.643 0.78 5.89v0c0 2.247-0.26 4.207-0.78 5.88-0.527 1.673-1.223 3.073-2.09 4.2-0.873 1.12-1.87 1.957-2.99 2.51-1.127 0.553-2.3 0.83-3.52 0.83zM72.02-3.81v0c0.587 0 1.163-0.157 1.73-0.47 0.573-0.32 1.093-0.837 1.56-1.55 0.46-0.72 0.833-1.667 1.12-2.84 0.287-1.167 0.43-2.597 0.43-4.29v0c0-1.693-0.143-3.123-0.43-4.29-0.287-1.16-0.66-2.103-1.12-2.83-0.467-0.727-0.987-1.247-1.56-1.56-0.567-0.32-1.143-0.48-1.73-0.48v0c-0.587 0-1.163 0.16-1.73 0.48-0.573 0.313-1.09 0.833-1.55 1.56-0.467 0.727-0.843 1.67-1.13 2.83-0.28 1.167-0.42 2.597-0.42 4.29v0c0 1.693 0.14 3.123 0.42 4.29 0.287 1.173 0.663 2.12 1.13 2.84 0.46 0.713 0.977 1.23 1.55 1.55 0.567 0.313 1.143 0.47 1.73 0.47zM87.04 0v-26.39l3.66 2.61c0.36-0.36 0.767-0.693 1.22-1 0.453-0.307 0.933-0.577 1.44-0.81 0.507-0.227 1.02-0.403 1.54-0.53 0.52-0.133 1.04-0.2 1.56-0.2v0c2.607 0 4.567 0.82 5.88 2.46 1.32 1.633 1.98 3.987 1.98 7.06v0 16.8h-4.34v-16.75c0-1.673-0.34-2.95-1.02-3.83-0.673-0.88-1.67-1.32-2.99-1.32v0c-0.78 0-1.573 0.19-2.38 0.57-0.807 0.387-1.543 0.987-2.21 1.8v0 19.53zM119.58 0.46v0c-1.253 0-2.447-0.26-3.58-0.78-1.127-0.52-2.113-1.323-2.96-2.41-0.847-1.093-1.52-2.487-2.02-4.18-0.493-1.693-0.74-3.71-0.74-6.05v0c0-2.347 0.247-4.367 0.74-6.06 0.5-1.693 1.173-3.083 2.02-4.17 0.847-1.093 1.833-1.9 2.96-2.42 1.133-0.52 2.327-0.78 3.58-0.78v0c0.633 0 1.243 0.08 1.83 0.24 0.587 0.167 1.14 0.403 1.66 0.71v0-13.45h4.35v39.45l-2.96-2.1c-0.647 0.653-1.387 1.15-2.22 1.49-0.827 0.34-1.713 0.51-2.66 0.51zM119.87-3.64v0c0.62 0 1.2-0.107 1.74-0.32 0.533-0.207 1.02-0.507 1.46-0.9v0-16.18c-0.913-0.833-1.98-1.25-3.2-1.25v0c-0.667 0-1.31 0.147-1.93 0.44-0.613 0.293-1.16 0.793-1.64 1.5-0.48 0.707-0.867 1.66-1.16 2.86-0.293 1.193-0.44 2.703-0.44 4.53v0c0 1.82 0.147 3.327 0.44 4.52 0.293 1.2 0.68 2.153 1.16 2.86 0.48 0.707 1.027 1.207 1.64 1.5 0.62 0.293 1.263 0.44 1.93 0.44z" fill="#ffffff" fill-rule="nonzero" stroke="none" stroke-width="1" stroke-linecap="butt" stroke-linejoin="miter" stroke-miterlimit="10" stroke-dasharray="" stroke-dashoffset="0" font-family="none" font-weight="none" font-size="none" text-anchor="none" style="mix-blend-mode: normal" data-fill-palette-color="primary" opacity="1"></path><path xmlns="http://www.w3.org/2000/svg" d="M13.84 43.35v0c-1.56 0-3.047-0.35-4.46-1.05-1.42-0.7-2.66-1.837-3.72-3.41-1.053-1.58-1.893-3.637-2.52-6.17-0.627-2.527-0.94-5.613-0.94-9.26v0c0-3.647 0.313-6.737 0.94-9.27 0.627-2.533 1.467-4.583 2.52-6.15 1.06-1.573 2.3-2.713 3.72-3.42 1.413-0.707 2.9-1.06 4.46-1.06v0c0.9 0 1.727 0.08 2.48 0.24 0.76 0.167 1.537 0.42 2.33 0.76v0l-2.02 3.93c-0.607-0.273-1.333-0.41-2.18-0.41v0c-0.907 0-1.81 0.27-2.71 0.81-0.893 0.547-1.697 1.43-2.41 2.65-0.72 1.22-1.303 2.807-1.75 4.76-0.447 1.953-0.67 4.34-0.67 7.16v0c0 2.813 0.223 5.197 0.67 7.15 0.447 1.953 1.03 3.54 1.75 4.76 0.713 1.22 1.517 2.103 2.41 2.65 0.9 0.547 1.803 0.82 2.71 0.82v0c0.847 0 1.573-0.14 2.18-0.42v0l2.02 3.93c-0.793 0.347-1.57 0.6-2.33 0.76-0.753 0.16-1.58 0.24-2.48 0.24zM24.15 42.89v-38.89h4.34v14.52c0.72-0.567 1.527-1.033 2.42-1.4 0.893-0.367 1.78-0.55 2.66-0.55v0c2.607 0 4.567 0.82 5.88 2.46 1.32 1.633 1.98 3.987 1.98 7.06v0 16.8h-4.35v-16.75c0-1.673-0.337-2.95-1.01-3.83-0.673-0.88-1.67-1.32-2.99-1.32v0c-0.78 0-1.573 0.19-2.38 0.57-0.807 0.387-1.543 0.987-2.21 1.8v0 19.53zM47.75 34.78v0c0-2.633 0.933-4.707 2.8-6.22 1.86-1.513 4.607-2.36 8.24-2.54v0-0.51c0-1.533-0.363-2.73-1.09-3.59-0.72-0.867-1.707-1.3-2.96-1.3v0c-0.653 0-1.327 0.12-2.02 0.36-0.693 0.233-1.38 0.547-2.06 0.94v0l-1.66-3.91c1.027-0.52 2.1-0.903 3.22-1.15 1.127-0.24 2.143-0.36 3.05-0.36v0c1.173 0 2.24 0.203 3.2 0.61 0.96 0.407 1.783 0.987 2.47 1.74 0.68 0.76 1.207 1.687 1.58 2.78 0.38 1.087 0.57 2.323 0.57 3.71v0 18.01l-3.2-1.56c-0.62 0.487-1.31 0.87-2.07 1.15-0.753 0.273-1.57 0.41-2.45 0.41v0c-1.107 0-2.127-0.223-3.06-0.67-0.94-0.447-1.747-1.053-2.42-1.82-0.673-0.76-1.197-1.663-1.57-2.71-0.38-1.04-0.57-2.163-0.57-3.37zM52.17 34.86v0c0 0.6 0.09 1.157 0.27 1.67 0.18 0.513 0.433 0.96 0.76 1.34 0.327 0.387 0.717 0.683 1.17 0.89 0.453 0.213 0.957 0.32 1.51 0.32v0c0.573 0 1.12-0.107 1.64-0.32 0.52-0.207 0.943-0.473 1.27-0.8v0-8.03c-1.04-0.02-1.967 0.08-2.78 0.3-0.813 0.22-1.507 0.547-2.08 0.98-0.567 0.427-1.003 0.947-1.31 1.56-0.3 0.613-0.45 1.31-0.45 2.09zM70.21 42.89v-26.39l3.67 2.61c0.353-0.36 0.76-0.693 1.22-1 0.453-0.307 0.933-0.577 1.44-0.81 0.5-0.227 1.013-0.403 1.54-0.53 0.52-0.133 1.04-0.2 1.56-0.2v0c2.6 0 4.56 0.82 5.88 2.46 1.32 1.633 1.98 3.987 1.98 7.06v0 16.8h-4.35v-16.75c0-1.673-0.337-2.95-1.01-3.83-0.673-0.88-1.67-1.32-2.99-1.32v0c-0.78 0-1.573 0.19-2.38 0.57-0.807 0.387-1.543 0.987-2.21 1.8v0 19.53zM102.71 43.35v0c-1.353 0-2.607-0.277-3.76-0.83-1.153-0.553-2.157-1.39-3.01-2.51-0.86-1.127-1.53-2.527-2.01-4.2-0.48-1.673-0.72-3.633-0.72-5.88v0c0-2.247 0.24-4.21 0.72-5.89 0.48-1.673 1.15-3.073 2.01-4.2 0.853-1.12 1.857-1.957 3.01-2.51 1.153-0.553 2.407-0.83 3.76-0.83v0c0.993 0 1.95 0.153 2.87 0.46 0.92 0.313 1.737 0.68 2.45 1.1v0l-1.83 3.79c-0.473-0.28-1.013-0.53-1.62-0.75-0.613-0.22-1.237-0.33-1.87-0.33v0c-0.633 0-1.253 0.163-1.86 0.49-0.6 0.327-1.14 0.857-1.62 1.59-0.48 0.727-0.863 1.673-1.15 2.84-0.28 1.167-0.42 2.58-0.42 4.24v0c0 1.66 0.14 3.07 0.42 4.23 0.287 1.167 0.67 2.117 1.15 2.85 0.48 0.727 1.02 1.253 1.62 1.58 0.607 0.327 1.227 0.49 1.86 0.49v0c0.633 0 1.257-0.11 1.87-0.33 0.607-0.22 1.147-0.467 1.62-0.74v0l1.83 3.78c-0.713 0.427-1.53 0.793-2.45 1.1-0.92 0.307-1.877 0.46-2.87 0.46zM121.53 43.35v0c-1.4 0-2.69-0.303-3.87-0.91-1.18-0.613-2.203-1.5-3.07-2.66-0.873-1.167-1.553-2.593-2.04-4.28-0.487-1.68-0.73-3.593-0.73-5.74v0c0-2.2 0.25-4.13 0.75-5.79 0.507-1.66 1.187-3.043 2.04-4.15 0.853-1.107 1.84-1.937 2.96-2.49 1.113-0.553 2.27-0.83 3.47-0.83v0c1.4 0 2.63 0.36 3.69 1.08 1.06 0.727 1.9 1.757 2.52 3.09 0.613 1.34 0.993 2.947 1.14 4.82 0.147 1.88 0.017 3.977-0.39 6.29v0l-11.67-0.02c0.133 1.4 0.39 2.577 0.77 3.53 0.387 0.947 0.843 1.713 1.37 2.3 0.527 0.587 1.1 1.007 1.72 1.26 0.62 0.253 1.24 0.38 1.86 0.38v0c0.373 0 0.75-0.04 1.13-0.12 0.38-0.087 0.747-0.193 1.1-0.32 0.347-0.133 0.667-0.28 0.96-0.44 0.293-0.167 0.54-0.32 0.74-0.46v0l1.66 3.71c-0.36 0.227-0.777 0.447-1.25 0.66-0.473 0.207-0.973 0.393-1.5 0.56-0.527 0.16-1.08 0.29-1.66 0.39-0.58 0.093-1.147 0.14-1.7 0.14zM116.36 27.68h7.64c0.08-1.367 0.05-2.493-0.09-3.38-0.133-0.887-0.343-1.597-0.63-2.13-0.287-0.527-0.633-0.89-1.04-1.09-0.407-0.207-0.837-0.31-1.29-0.31v0c-1.173 0-2.18 0.583-3.02 1.75-0.84 1.16-1.363 2.88-1.57 5.16z" fill="#ff908b" fill-rule="nonzero" stroke="none" stroke-width="1" stroke-linecap="butt" stroke-linejoin="miter" stroke-miterlimit="10" stroke-dasharray="" stroke-dashoffset="0" font-family="none" font-weight="none" font-size="none" text-anchor="none" style="mix-blend-mode: normal" data-fill-palette-color="secondary" opacity="1"></path></g></svg></g></svg></g></svg></g></svg></g><g transform="matrix(1,0,0,1,390.95517870653055,0)"><svg viewBox="0 0 163.03323267164092 341.6304" height="341.6304" width="163.03323267164092"><g><svg xmlns="http://www.w3.org/2000/svg" xmlns:xlink="http://www.w3.org/1999/xlink" version="1.1" x="0" y="0" viewBox="29.568008422851562 6.003180980682373 42.86199951171875 89.81581115722656" enable-background="new 0 0 100 100" xml:space="preserve" height="341.6304" width="163.03323267164092" class="icon-icon-0" data-fill-palette-color="accent" id="icon-0"><path d="M72.156 53.504c-0.338-4.9-1.142-9.725-2.202-14.519-0.303-1.369-0.215-2.82-0.437-4.214-0.336-2.093-0.727-4.182-1.201-6.248-0.729-3.181-3.798-4.147-6.383-2.311-0.773-0.617-0.976-1.066-1.742-1.632-0.229-0.171-0.857-0.397-1.146-0.473-1.244-0.327-1.301-0.375-1.189-1.618 0.289-3.307 0.666-6.606 0.941-9.914 0.209-2.511-0.82-5.681-3.849-6.434-0.069-0.017-1.052-0.232-1.985-0.089-2.995 0.914-3.826 3.259-4.262 6.01-0.89 5.63-0.939 11.284-0.663 16.954 0.05 1.031 0.112 2.062 0.061 3.135-0.342-0.721-0.679-1.445-1.028-2.163-2.508-5.151-5.259-10.158-8.822-14.674-1.803-2.285-5.185-2.783-7.157-0.952-0.678 0.63-0.967 1.386-1.311 2.339-0.105 0.713-0.213 1.299-0.213 1.898 0.339 1.854 1.531 3.262 2.488 4.796 3.409 5.461 6.36 11.16 8.86 17.091 0.114 0.272 0.215 0.551 0.349 0.892-1.49 0.772-2.542 1.904-3.006 3.502-0.353 1.213-0.289 2.426 0.153 3.612 0.907 2.435 2.921 3.659 5.952 3.524 0.134 0.531 0.38 1.092 0.403 1.66 0.566 14.127-2.362 27.428-9.453 39.736-0.644 1.117-0.423 1.763 0.797 2.407 0.164 0 0.328 0 0.491 0 0.406-0.415 0.943-0.763 1.197-1.257 1.394-2.705 2.847-5.393 4.042-8.188 3.483-8.144 5.256-16.699 5.667-25.525 0.146-3.138 0.39-6.308-0.373-9.436 0.022-0.016 0.061-0.061 0.109-0.076 2.936-0.9 5.871-1.807 8.816-2.681 0.179-0.053 0.501 0.079 0.641 0.231 1.803 1.965 4.524 1.995 6.318 0.025 0.339-0.374 0.605-0.813 0.788-1.061 0.954 0.092 1.804 0.333 2.593 0.208 0.786-0.125 1.514-0.616 2.272-0.949 0.031 0.153 0.096 0.39 0.128 0.631 0.606 4.569 0.912 9.152 0.86 13.764-0.126 11.07-2.532 21.636-6.887 31.784-0.569 1.327-0.479 1.698 0.659 2.529 0.219 0 0.437 0 0.654 0 0.402-0.479 0.943-0.896 1.183-1.446 4.11-9.445 6.521-19.299 7.028-29.604 0.01-0.176 0.088-0.35 0.133-0.526 0-2.617 0-5.235 0-7.853C72.338 55.432 72.222 54.469 72.156 53.504zM57.422 26.659c0.841-0.166 1.91 0.285 2.043 0.954 0.475 2.39 0.899 4.79 1.34 7.167-1.146 0.547-2.186 1.041-3.315 1.58-0.378-2.289-0.739-4.448-1.087-6.611-0.086-0.535-0.148-1.077-0.181-1.618C56.174 27.333 56.611 26.818 57.422 26.659zM50.859 17.329c0.187-2.216 0.578-4.419 0.959-6.613 0.212-1.217 1.12-1.981 2.069-1.957 0.979 0.026 1.86 0.776 1.978 2.034 0.113 1.222-0.035 2.474-0.122 3.708-0.229 3.255-0.479 6.51-0.747 9.763-0.024 0.293-0.154 0.644-0.357 0.847-1.032 1.034-1.345 2.266-1.125 3.67 0.4 2.552 0.779 5.108 1.219 7.654 0.131 0.76 0.025 1.211-0.805 1.416-0.754 0.186-1.476 0.507-2.36 0.823-0.191-1.982-0.397-3.792-0.535-5.604C50.635 27.827 50.417 22.576 50.859 17.329zM32.92 19.659c-0.381-0.572-0.507-1.373-0.567-2.083-0.058-0.702 0.382-1.229 1.077-1.471 0.762-0.265 1.96 0.023 2.457 0.691 1.168 1.573 2.362 3.135 3.409 4.789 3.501 5.535 6.379 11.385 8.673 17.522 0.057 0.152 0.099 0.31 0.188 0.598-1.401 0.35-2.739 0.683-4.144 1.033-0.388-0.91-0.748-1.782-1.129-2.645C40.053 31.684 36.815 25.496 32.92 19.659zM59.171 47.392c0.215-0.133 0.321-0.21 0.437-0.268 0.529-0.255 1.062-0.505 1.621-0.771C61.064 47.417 60.401 47.775 59.171 47.392zM61.964 42.812c-5.686 3.259-11.85 5.145-18.214 6.482-0.132 0.027-0.27 0.031-0.335 0.037-1.337-0.021-2.41-1.104-2.6-2.556-0.181-1.381 0.662-2.649 2.062-3.008 2.555-0.654 5.174-1.107 7.664-1.949 3.417-1.155 6.748-2.572 10.097-3.927 0.698-0.283 1.314-0.518 1.981-0.018 0.751 0.562 1.172 1.323 1.072 2.251C63.565 41.28 63.056 42.186 61.964 42.812zM66.99 43.788c-0.012 0.363-0.117 0.767-0.309 1.07-0.315 0.497-0.787 0.804-1.373 0.374-0.542-0.398-0.521-0.95-0.188-1.444 0.682-1.011 1.166-2.079 1.289-3.306 0.148-1.489-0.298-2.776-1.193-3.956-0.257-0.34-0.432-0.79-0.509-1.214-0.356-1.979-0.639-3.972-1.005-5.949-0.12-0.651 0.014-1.102 0.646-1.277 0.683-0.189 1.063 0.162 1.241 0.827 1.002 3.751 1.59 7.556 1.416 11.449C67.006 41.504 67.029 42.647 66.99 43.788z" fill="#ffffff" data-fill-palette-color="accent"></path></svg></g></svg></g></svg></g><defs></defs></svg><rect width="395.52" height="243.9070078593419" fill="none" stroke="none" visibility="hidden"></rect></g></svg></g></svg>